# xmcd
#
# Track frame offsets:
#	150
#	5883
#	22317
#	40050
#	57784
#	77358
#	92527
#	107491
#	127188
#	145247
#	165662
#	179786
#	197042
#	213557
#
# Disc length: 3070 seconds
#
# Revision: 0
# Processed by: cddbd v1.5.2PL0 Copyright (c) Steve Scherf et al.
# Submitted via: EasyCDDAExtractor 11.1.0.1
#
DISCID=c50bfc0e
DTITLE=GUMMY - COMFORT
DYEAR=2008
DGENRE=Soul
TTITLE0=INTRO/WORK IT NOW
TTITLE1=CLAP YOUR HANDS
TTITLE2=미안해요
TTITLE3=사랑하지 말아요
TTITLE4=거울을 보다가
TTITLE5=LET'S GET IT PARTY
TTITLE6=마지막 파티
TTITLE7=따끔
TTITLE8=이별이 아니길
TTITLE9=I'M GONNA MISS U
TTITLE10=여기까지만
TTITLE11=환각
TTITLE12=음악이 끝나기 전에
TTITLE13=미안해요(Hard Trance Remix)
EXTD=
EXTT0=
EXTT1=
EXTT2=
EXTT3=
EXTT4=
EXTT5=
EXTT6=
EXTT7=
EXTT8=
EXTT9=
EXTT10=
EXTT11=
EXTT12=
EXTT13=
PLAYORDER=
